<?xml version="1.0" encoding="UTF-8" standalone="no"?>
<svg
   xmlns:dc="http://purl.org/dc/elements/1.1/"
   xmlns:cc="http://creativecommons.org/ns#"
   xmlns:rdf="http://www.w3.org/1999/02/22-rdf-syntax-ns#"
   xmlns:svg="http://www.w3.org/2000/svg"
   xmlns="http://www.w3.org/2000/svg"
   xmlns:sodipodi="http://sodipodi.sourceforge.net/DTD/sodipodi-0.dtd"
   xmlns:inkscape="http://www.inkscape.org/namespaces/inkscape"
   version="1.1"
   id="Capa_1"
   x="0px"
   y="0px"
   width="16px"
   height="16px"
   viewBox="0 0 774.266 774.266"
   style="enable-background:new 0 0 774.266 774.266;"
   xml:space="preserve"
   sodipodi:docname="delete1.svg"
   inkscape:version="0.92.4 (5da689c313, 2019-01-14)"><metadata
   id="metadata3809"><rdf:RDF><cc:Work
       rdf:about=""><dc:format>image/svg+xml</dc:format><dc:type
         rdf:resource="http://purl.org/dc/dcmitype/StillImage" /><dc:title></dc:title></cc:Work></rdf:RDF></metadata><defs
   id="defs3807" /><sodipodi:namedview
   pagecolor="#ffffff"
   bordercolor="#666666"
   borderopacity="1"
   objecttolerance="10"
   gridtolerance="10"
   guidetolerance="10"
   inkscape:pageopacity="0"
   inkscape:pageshadow="2"
   inkscape:window-width="1350"
   inkscape:window-height="869"
   id="namedview3805"
   showgrid="false"
   inkscape:zoom="34.25"
   inkscape:cx="8"
   inkscape:cy="8"
   inkscape:window-x="2899"
   inkscape:window-y="329"
   inkscape:window-maximized="0"
   inkscape:current-layer="Capa_1" />
<g
   id="g3772">
	<g
   id="g3770">
		<path
   d="M640.35,91.169H536.971V23.991C536.971,10.469,526.064,0,512.543,0c-1.312,0-2.187,0.438-2.614,0.875    C509.491,0.438,508.616,0,508.179,0H265.212h-1.74h-1.75c-13.521,0-23.99,10.469-23.99,23.991v67.179H133.916    c-29.667,0-52.783,23.116-52.783,52.783v38.387v47.981h45.803v491.6c0,29.668,22.679,52.346,52.346,52.346h415.703    c29.667,0,52.782-22.678,52.782-52.346v-491.6h45.366v-47.981v-38.387C693.133,114.286,670.008,91.169,640.35,91.169z     M285.713,47.981h202.84v43.188h-202.84V47.981z M599.349,721.922c0,3.061-1.312,4.363-4.364,4.363H179.282    c-3.052,0-4.364-1.303-4.364-4.363V230.32h424.431V721.922z M644.715,182.339H129.551v-38.387c0-3.053,1.312-4.802,4.364-4.802    H640.35c3.053,0,4.365,1.749,4.365,4.802V182.339z"
   id="path3762" />
		<rect
   x="475.031"
   y="286.593"
   width="48.418"
   height="396.942"
   id="rect3764" />
		<rect
   x="363.361"
   y="286.593"
   width="48.418"
   height="396.942"
   id="rect3766" />
		<rect
   x="251.69"
   y="286.593"
   width="48.418"
   height="396.942"
   id="rect3768" />
	</g>
</g>
<g
   id="g3774">
</g>
<g
   id="g3776">
</g>
<g
   id="g3778">
</g>
<g
   id="g3780">
</g>
<g
   id="g3782">
</g>
<g
   id="g3784">
</g>
<g
   id="g3786">
</g>
<g
   id="g3788">
</g>
<g
   id="g3790">
</g>
<g
   id="g3792">
</g>
<g
   id="g3794">
</g>
<g
   id="g3796">
</g>
<g
   id="g3798">
</g>
<g
   id="g3800">
</g>
<g
   id="g3802">
</g>
<path
   style="stroke-width:0.02919708;fill:#b3b3b3"
   d="M 3.3671292,15.934613 C 3.0914527,15.848415 2.8244088,15.595144 2.7095986,15.310996 l -0.067263,-0.16647 -0.00769,-5.20438 -0.00769,-5.2043796 H 2.1587822 1.6906139 l 0.00871,-1.0145985 0.00871,-1.0145986 0.081737,-0.1751824 C 1.8961673,2.3033453 2.0946971,2.1038718 2.3179448,2.0006981 l 0.1784056,-0.08245 1.2176624,-0.00822 1.2176622,-0.00822 0.00862,-0.7947036 C 4.948815,0.32082654 4.949655,0.31135588 5.019212,0.21382995 5.057878,0.15961585 5.1456056,0.0904472 5.2141612,0.06012175 5.3334578,0.00735115 5.4531586,0.00504072 8.0029627,0.00629305 c 2.5141753,0.00123483 2.6708543,0.00430737 2.7831533,0.05457886 0.280253,0.12545697 0.305899,0.21877865 0.307498,1.11893629 l 0.0013,0.7214219 1.218978,0.00851 1.218978,0.00851 0.175182,0.092396 c 0.224196,0.1182474 0.39881,0.2993198 0.502168,0.5207424 l 0.08177,0.1751824 0.0087,1.0145986 0.0087,1.0145985 h -0.468561 -0.468562 v 5.1652821 c 0,4.9957769 -0.0018,5.1711409 -0.05557,5.3438289 -0.09569,0.307457 -0.35254,0.573241 -0.654968,0.677754 -0.142227,0.04915 -0.406553,0.05205 -4.6617253,0.0511 -3.6274747,-8.04e-4 -4.5348274,-0.0085 -4.6328708,-0.03912 z m 9.0239078,-0.967658 c 0.0097,-0.0254 0.01772,-2.33781 0.01772,-5.1386861 V 4.7357664 H 8 3.5912409 v 5.0925025 c 0,2.8008761 0.00798,5.1132851 0.017722,5.1386861 0.016051,0.04183 0.43008,0.04618 4.3910368,0.04618 3.9609573,0 4.3749863,-0.0044 4.3910373,-0.04618 z M 13.343066,3.3547445 c 0,-0.285807 -0.01105,-0.4285708 -0.03504,-0.4525547 -0.05097,-0.050969 -10.5650893,-0.050969 -10.6160582,0 -0.023984,0.023984 -0.035036,0.1667477 -0.035036,0.4525547 V 3.7722628 H 8 13.343066 Z M 10.10219,1.4364964 V 0.96934307 H 8 5.8978102 V 1.4364964 1.9036496 H 8 10.10219 Z"
   id="path3811"
   inkscape:connector-curvature="0"
   transform="scale(48.391625)" /><path
   style="fill:#b3b3b3;stroke-width:0.02919708"
   d="M 5.2262774,10.020438 V 5.9328467 H 5.7080292 6.189781 v 4.0875913 4.087591 H 5.7080292 5.2262774 Z"
   id="path3813"
   inkscape:connector-curvature="0"
   transform="scale(48.391625)" /><path
   style="fill:#b3b3b3;stroke-width:0.02919708"
   d="M 7.5328467,10.020438 V 5.9328467 h 0.4817518 0.4817519 v 4.0875913 4.087591 H 8.0145985 7.5328467 Z"
   id="path3815"
   inkscape:connector-curvature="0"
   transform="scale(48.391625)" /><path
   style="fill:#b3b3b3;stroke-width:0.02919708"
   d="M 9.8394161,10.020438 V 5.9328467 h 0.4817519 0.481752 v 4.0875913 4.087591 H 10.321168 9.8394161 Z"
   id="path3817"
   inkscape:connector-curvature="0"
   transform="scale(48.391625)" /><path
   style="fill:#b3b3b3;stroke-width:0.02919708"
   d="M 3.3965542,15.919662 C 3.1482304,15.859909 2.8681989,15.609317 2.7349169,15.327582 L 2.6569343,15.16274 v -3.982421 c 0,-2.1903324 -0.00871,-4.5364013 -0.019351,-5.2134872 L 2.6182323,4.7357664 H 2.1583239 1.6984155 L 1.7145222,3.7065693 C 1.7304557,2.6884398 1.7313972,2.6758392 1.8020775,2.5348091 1.8988693,2.341678 2.0976997,2.1354783 2.2839687,2.0350574 c 0.084693,-0.045659 0.1605568,-0.09062 0.168586,-0.099913 0.00803,-0.00929 0.5625017,-0.017354 1.2321612,-0.017914 0.6696594,-5.597e-4 1.2263696,-0.00982 1.2371337,-0.020589 0.010764,-0.010764 0.026478,-0.3692688 0.03492,-0.796677 0.014379,-0.72800037 0.019228,-0.78278341 0.076735,-0.86695546 0.1293682,-0.18935428 0.1283408,-0.1892062 1.4560073,-0.20980679 0.6621554,-0.01027426 1.8936999,-0.0085301 2.7367656,0.003876 1.4272535,0.02100259 1.5391105,0.02634882 1.6237795,0.07760874 0.186281,0.11277721 0.196325,0.15765731 0.227161,1.01501681 l 0.02798,0.7780983 0.498493,0.019656 c 0.274172,0.010811 0.823686,0.015411 1.221144,0.010223 0.397458,-0.00519 0.722671,-0.00286 0.722697,0.00516 2.6e-5,0.00803 0.07171,0.052042 0.159293,0.097806 0.189576,0.099055 0.392376,0.3072258 0.491147,0.5041567 0.07079,0.1411429 0.07166,0.1528165 0.08705,1.1717602 l 0.01555,1.0291971 h -0.464159 -0.464159 l -0.0033,3.9197081 c -0.0018,2.1558399 -0.01181,4.5109489 -0.02227,5.2335769 -0.0183,1.264498 -0.02139,1.319044 -0.08227,1.451598 -0.08402,0.182922 -0.308906,0.419122 -0.490168,0.51482 l -0.146564,0.07738 -4.5693427,0.0045 c -2.5131387,0.0025 -4.6109667,-0.0055 -4.66184,-0.01772 z m 8.9027158,-0.925263 0.109489,-0.0181 V 9.8560339 4.7357664 H 8 3.5912409 v 5.1221483 5.1221483 l 0.080292,0.01216 c 0.1307973,0.01981 8.5082431,0.02192 8.6277371,0.0022 z M 13.343066,3.3520289 c 0,-0.3562642 -0.007,-0.4229317 -0.04618,-0.4379562 -0.06038,-0.023168 -10.5333885,-0.023168 -10.5937641,0 -0.039153,0.015024 -0.046184,0.081692 -0.046184,0.4379562 V 3.7722628 H 8 13.343066 Z M 8.9416058,2.8452699 c -0.5178832,-0.00447 -1.3653284,-0.00447 -1.8832116,0 -0.5178833,0.00447 -0.094161,0.00812 0.9416058,0.00812 1.0357664,0 1.4594891,-0.00366 0.9416058,-0.00812 z M 10.10219,1.4364964 V 0.96934307 H 8 5.8978102 V 1.4364964 1.9036496 H 8 10.10219 Z"
   id="path3819"
   inkscape:connector-curvature="0"
   transform="scale(48.391625)" /><path
   style="fill:#ececec;stroke-width:0.02919708"
   d="M 5.2262774,10.020438 V 5.9328467 H 5.7080292 6.189781 v 4.0875913 4.087591 H 5.7080292 5.2262774 Z"
   id="path3821"
   inkscape:connector-curvature="0"
   transform="scale(48.391625)" /><path
   style="fill:#ececec;stroke-width:0.02919708"
   d="M 7.5328467,10.020438 V 5.9328467 h 0.4817518 0.4817519 v 4.0875913 4.087591 H 8.0145985 7.5328467 Z"
   id="path3823"
   inkscape:connector-curvature="0"
   transform="scale(48.391625)" /><path
   style="fill:#ececec;stroke-width:0.02919708"
   d="M 9.8394161,10.020438 V 5.9328467 h 0.4817519 0.481752 v 4.0875913 4.087591 H 10.321168 9.8394161 Z"
   id="path3825"
   inkscape:connector-curvature="0"
   transform="scale(48.391625)" /><path
   style="fill:#ececec;stroke-width:0.02919708"
   d="m 3.3797745,15.915997 c -0.2409314,-0.0572 -0.5300787,-0.32267 -0.6521826,-0.598768 l -0.07026,-0.158871 -0.007,-4.079909 C 2.6464857,8.8344993 2.6395237,6.4894161 2.6348632,5.8671533 L 2.6263896,4.7357664 H 2.1601364 1.6938832 l 0.018504,-1.0291971 c 0.01825,-1.0151036 0.01948,-1.0311492 0.089822,-1.1717602 0.096556,-0.1930151 0.2953942,-0.3992785 0.4817603,-0.4997517 0.084693,-0.045659 0.1605568,-0.09062 0.168586,-0.099913 0.00803,-0.00929 0.5653383,-0.02019 1.2384647,-0.024217 0.6731264,-0.00403 1.2284022,-0.011857 1.2339461,-0.017401 0.00554,-0.00554 0.018622,-0.3615098 0.029063,-0.7910351 C 4.975388,0.22371858 4.9810015,0.20107932 5.2063746,0.08477342 5.3136806,0.02939718 5.3930117,0.02695884 7.3231629,0.01971133 8.4260803,0.01557 9.650365,0.02060865 10.043796,0.03090834 c 0.671217,0.0175719 0.721771,0.02273351 0.819804,0.08370304 0.05746,0.035737 0.121462,0.10143042 0.142223,0.1459854 0.04127,0.0885604 0.08457,0.72384415 0.08732,1.28093232 l 0.0017,0.3532078 0.620437,0.020205 c 0.341241,0.011113 0.893786,0.018676 1.227878,0.016807 0.334091,-0.00187 0.623142,0.00849 0.642335,0.023019 0.01919,0.014529 0.09478,0.060598 0.167963,0.1023746 0.167406,0.095559 0.353195,0.2955393 0.444925,0.4789089 0.06958,0.1390851 0.07098,0.1575964 0.08877,1.1705171 l 0.01808,1.0291971 h -0.466507 -0.466506 l -0.0032,4.0218978 c -0.0018,2.2120436 -0.01184,4.5671536 -0.02237,5.2335766 -0.01834,1.161268 -0.02178,1.21745 -0.08272,1.350387 -0.08319,0.181447 -0.320403,0.429879 -0.496263,0.519726 l -0.139936,0.07149 -4.5693428,0.0045 c -2.5811495,0.0026 -4.6168911,-0.0067 -4.6786197,-0.0214 z M 12.1415,14.994168 12.408759,14.975197 V 9.855482 4.7357664 H 8 3.5912409 v 5.1226943 5.1226943 l 0.1824817,0.01037 c 0.3398033,0.0193 8.0985514,0.02176 8.3677774,0.0026 z M 13.343066,3.3693431 c 0,-0.2744526 -0.01117,-0.4140908 -0.03504,-0.4379562 -0.05097,-0.050969 -10.5650893,-0.050969 -10.6160582,0 -0.023865,0.023865 -0.035036,0.1635036 -0.035036,0.4379562 V 3.7722628 H 8 13.343066 Z M 8.1386861,2.8456923 c -0.076277,-0.00601 -0.2010949,-0.00601 -0.2773722,0 -0.076277,0.00601 -0.013869,0.010936 0.1386861,0.010936 0.1525547,0 0.2149635,-0.00492 0.1386861,-0.010936 z M 10.10219,1.4364964 V 0.96934307 H 8 5.8978102 V 1.4364964 1.9036496 H 8 10.10219 Z"
   id="path3827"
   inkscape:connector-curvature="0"
   transform="scale(48.391625)" /></svg>