<svg width="32" height="32" viewBox="0 0 92 92" fill="none" xmlns="http://www.w3.org/2000/svg">
<path fill-rule="evenodd" clip-rule="evenodd" d="M0 16.7273C2.26998e-06 25.9655 7.48906 33.4545 16.7273 33.4545C24.5215 33.4545 31.0707 28.1237 32.9276 20.9091L44.1452 20.9091C52.0687 20.9091 57.7149 21.2745 61.7812 22.0988C65.8234 22.9182 67.8409 24.1011 69.0031 25.3773C70.1702 26.6588 70.9918 28.5976 71.4416 32.0621C71.6373 33.5694 71.7505 35.2491 71.816 37.1465L66.7801 33.0587L61.5091 39.5523L76.0829 51.3822L90.448 39.764L85.1886 33.2611L80.1889 37.3047C80.1181 35.0207 79.9851 32.9075 79.7356 30.9854C79.1872 26.7607 78.0123 22.8484 75.1866 19.7457C72.3561 16.6378 68.3843 14.9036 63.4427 13.9019C58.5252 12.905 52.1929 12.5455 44.1452 12.5455L32.9276 12.5455C31.0707 5.33087 24.5215 0 16.7273 0C7.48906 2.26998e-06 0 7.48906 0 16.7273ZM25.091 16.6847C25.0681 12.0852 21.3324 8.36364 16.7275 8.36364C12.1084 8.36364 8.36386 12.1082 8.36386 16.7273C8.36386 21.3464 12.1084 25.0909 16.7275 25.0909C21.3324 25.0909 25.0681 21.3693 25.091 16.7698L25.091 16.6847ZM75.273 58.5455C84.5112 58.5455 92.0002 66.0345 92.0002 75.2727C92.0002 84.5109 84.5112 92 75.273 92C67.4787 92 60.9296 86.6691 59.0727 79.4545H47.855C39.8073 79.4545 33.4751 79.0949 28.5575 78.0981C23.6159 77.0964 19.6442 75.3622 16.8136 72.2543C13.9879 69.1516 12.8131 65.2393 12.2646 61.0146C12.0151 59.0925 11.8822 56.9793 11.8114 54.6953L6.81166 58.7389L1.55221 52.236L15.9173 40.6178L30.4911 52.4477L25.2201 58.9413L20.1842 54.8535C20.2497 56.7509 20.363 58.4306 20.5587 59.9379C21.0084 63.4024 21.83 65.3412 22.9971 66.6227C24.1594 67.8989 26.1768 69.0818 30.2191 69.9012C34.2853 70.7255 39.9315 71.0909 47.855 71.0909H59.0727C60.9296 63.8763 67.4787 58.5455 75.273 58.5455ZM66.9092 75.3123V75.2332C66.9305 70.6323 70.6668 66.9091 75.2728 66.9091C79.8919 66.9091 83.6364 70.6536 83.6364 75.2727C83.6364 79.8918 79.8919 83.6364 75.2728 83.6364C70.6668 83.6364 66.9305 79.9132 66.9092 75.3123Z" fill="#ADADAD"/>
</svg>
